<svg xmlns="http://www.w3.org/2000/svg" viewBox="0 0 64 64" width="64" height="64">
  <rect width="64" height="64" fill="#0d1117"/>
  <!-- Row 0: 🟩🟩🟩🟩🟩🟩🟩🟩 -->
  <rect x="0" y="0" width="64" height="8" fill="#7ee787"/>
  <!-- Row 1: 🟩 ⬛⬛⬛⬛⬛⬛ 🟩 -->
  <rect x="0" y="8" width="8" height="8" fill="#7ee787"/>
  <rect x="56" y="8" width="8" height="8" fill="#7ee787"/>
  <!-- Row 2: 🟩 ⬛ 🟩🟩 ⬛⬛⬛ 🟩 -->
  <rect x="0" y="16" width="8" height="8" fill="#7ee787"/>
  <rect x="16" y="16" width="16" height="8" fill="#7ee787"/>
  <rect x="56" y="16" width="8" height="8" fill="#7ee787"/>
  <!-- Row 3: 🟩 ⬛⬛⬛ 🟩🟩 ⬛ 🟩 -->
  <rect x="0" y="24" width="8" height="8" fill="#7ee787"/>
  <rect x="32" y="24" width="8" height="8" fill="#7ee787"/>
  <rect x="40" y="24" width="8" height="8" fill="#7ee787"/>
  <rect x="56" y="24" width="8" height="8" fill="#7ee787"/>
  <!-- Row 4: 🟩 ⬛ 🟩🟩 ⬛⬛⬛ 🟩 -->
  <rect x="0" y="32" width="8" height="8" fill="#7ee787"/>
  <rect x="16" y="32" width="16" height="8" fill="#7ee787"/>
  <rect x="56" y="32" width="8" height="8" fill="#7ee787"/>
  <!-- Row 5: 🟩 ⬛⬛⬛⬛⬛⬛ 🟩 -->
  <rect x="0" y="40" width="8" height="8" fill="#7ee787"/>
  <rect x="56" y="40" width="8" height="8" fill="#7ee787"/>
  <!-- Row 6: 🟩 ⬛⬛⬛ 🟩🟩🟩🟩 -->
  <rect x="0" y="48" width="8" height="8" fill="#7ee787"/>
  <rect x="32" y="48" width="32" height="8" fill="#7ee787"/>
  <!-- Row 7: 🟩🟩🟩🟩🟩🟩🟩🟩 -->
  <rect x="0" y="56" width="64" height="8" fill="#7ee787"/>
</svg>
